<mxfile host="app.diagrams.net" modified="2021-03-22T02:47:27.954Z" agent="5.0 (Windows NT 10.0; Win64; x64) AppleWebKit/537.36 (KHTML, like Gecko) Chrome/89.0.4389.90 Safari/537.36" etag="GE23mnUajOaDcM0OCNMV" version="14.4.7" type="github">
  <diagram id="En8cvX28pjGojZIPmTmF" name="Page-1">
    <mxGraphModel dx="1385" dy="662" grid="0" gridSize="10" guides="1" tooltips="1" connect="1" arrows="1" fold="1" page="1" pageScale="1" pageWidth="827" pageHeight="1169" math="0" shadow="0">
      <root>
        <mxCell id="0" />
        <mxCell id="1" parent="0" />
        <mxCell id="B92s6wXv13DbhFQuGGSY-1" value="&lt;h3&gt;&lt;font style=&quot;font-size: 18px&quot;&gt;陈筛金（法人）&lt;/font&gt;&lt;/h3&gt;&lt;h3&gt;&lt;font style=&quot;font-size: 18px&quot;&gt;江苏万阳电力科技有限公司&lt;/font&gt;&lt;/h3&gt;" style="fontColor=#0066CC;verticalAlign=top;verticalLabelPosition=bottom;labelPosition=center;align=center;html=1;outlineConnect=0;fillColor=#CCCCCC;strokeColor=#6881B3;gradientColor=none;gradientDirection=north;strokeWidth=2;shape=mxgraph.networks.user_male;" vertex="1" parent="1">
          <mxGeometry x="590" y="110" width="52" height="130" as="geometry" />
        </mxCell>
        <mxCell id="B92s6wXv13DbhFQuGGSY-4" style="edgeStyle=orthogonalEdgeStyle;rounded=0;orthogonalLoop=1;jettySize=auto;html=1;exitX=0.5;exitY=0;exitDx=0;exitDy=0;exitPerimeter=0;entryX=0.5;entryY=1;entryDx=0;entryDy=0;entryPerimeter=0;" edge="1" parent="1" source="B92s6wXv13DbhFQuGGSY-2" target="B92s6wXv13DbhFQuGGSY-1">
          <mxGeometry relative="1" as="geometry" />
        </mxCell>
        <mxCell id="B92s6wXv13DbhFQuGGSY-2" value="陈忠" style="fontColor=#0066CC;verticalAlign=top;verticalLabelPosition=bottom;labelPosition=center;align=center;html=1;outlineConnect=0;fillColor=#CCCCCC;strokeColor=#6881B3;gradientColor=none;gradientDirection=north;strokeWidth=2;shape=mxgraph.networks.user_male;" vertex="1" parent="1">
          <mxGeometry x="602" y="340" width="28" height="70" as="geometry" />
        </mxCell>
        <mxCell id="B92s6wXv13DbhFQuGGSY-10" style="edgeStyle=orthogonalEdgeStyle;rounded=0;orthogonalLoop=1;jettySize=auto;html=1;shape=link;" edge="1" parent="1" source="B92s6wXv13DbhFQuGGSY-5" target="B92s6wXv13DbhFQuGGSY-1">
          <mxGeometry relative="1" as="geometry" />
        </mxCell>
        <mxCell id="B92s6wXv13DbhFQuGGSY-5" value="&lt;h3&gt;&lt;font style=&quot;font-size: 18px&quot; face=&quot;Tahoma&quot;&gt;薛总（全国市场负责人）&lt;/font&gt;&lt;/h3&gt;&lt;h3&gt;&lt;font style=&quot;font-size: 18px&quot; face=&quot;Tahoma&quot;&gt;&lt;span style=&quot;color: rgb(0 , 0 , 0) ; font-weight: 600 ; background-color: rgb(255 , 255 , 255)&quot;&gt;山东电工电气集团新能科技有限公司&lt;/span&gt;&lt;/font&gt;&lt;/h3&gt;" style="fontColor=#0066CC;verticalAlign=top;verticalLabelPosition=bottom;labelPosition=center;align=center;html=1;outlineConnect=0;fillColor=#CCCCCC;strokeColor=#330000;gradientColor=none;gradientDirection=north;strokeWidth=2;shape=mxgraph.networks.user_male;" vertex="1" parent="1">
          <mxGeometry x="310" y="110" width="52" height="130" as="geometry" />
        </mxCell>
        <mxCell id="B92s6wXv13DbhFQuGGSY-9" style="edgeStyle=orthogonalEdgeStyle;rounded=0;orthogonalLoop=1;jettySize=auto;html=1;exitX=0.5;exitY=0;exitDx=0;exitDy=0;exitPerimeter=0;entryX=0.5;entryY=1;entryDx=0;entryDy=0;entryPerimeter=0;" edge="1" parent="1" source="B92s6wXv13DbhFQuGGSY-7" target="B92s6wXv13DbhFQuGGSY-5">
          <mxGeometry relative="1" as="geometry">
            <Array as="points">
              <mxPoint x="284" y="330" />
              <mxPoint x="336" y="330" />
            </Array>
          </mxGeometry>
        </mxCell>
        <mxCell id="B92s6wXv13DbhFQuGGSY-7" value="辛瑞芝&lt;br&gt;硕士毕业两年，薛总很赏识" style="fontColor=#0066CC;verticalAlign=top;verticalLabelPosition=bottom;labelPosition=center;align=center;html=1;outlineConnect=0;fillColor=#CCCCCC;strokeColor=#6881B3;gradientColor=none;gradientDirection=north;strokeWidth=2;shape=mxgraph.networks.user_male;" vertex="1" parent="1">
          <mxGeometry x="270" y="360" width="28" height="70" as="geometry" />
        </mxCell>
        <mxCell id="B92s6wXv13DbhFQuGGSY-12" style="edgeStyle=orthogonalEdgeStyle;rounded=0;orthogonalLoop=1;jettySize=auto;html=1;" edge="1" parent="1" source="B92s6wXv13DbhFQuGGSY-11" target="B92s6wXv13DbhFQuGGSY-5">
          <mxGeometry relative="1" as="geometry">
            <Array as="points">
              <mxPoint x="376" y="330" />
              <mxPoint x="336" y="330" />
            </Array>
          </mxGeometry>
        </mxCell>
        <mxCell id="B92s6wXv13DbhFQuGGSY-11" value="刘长利&lt;br&gt;江苏区域两个销售之一" style="fontColor=#0066CC;verticalAlign=top;verticalLabelPosition=bottom;labelPosition=center;align=center;html=1;outlineConnect=0;fillColor=#CCCCCC;strokeColor=#6881B3;gradientColor=none;gradientDirection=north;strokeWidth=2;shape=mxgraph.networks.user_male;" vertex="1" parent="1">
          <mxGeometry x="362" y="410" width="28" height="70" as="geometry" />
        </mxCell>
        <mxCell id="B92s6wXv13DbhFQuGGSY-15" style="edgeStyle=orthogonalEdgeStyle;rounded=0;orthogonalLoop=1;jettySize=auto;html=1;shape=link;" edge="1" parent="1" source="B92s6wXv13DbhFQuGGSY-13" target="B92s6wXv13DbhFQuGGSY-5">
          <mxGeometry relative="1" as="geometry" />
        </mxCell>
        <mxCell id="B92s6wXv13DbhFQuGGSY-13" value="&lt;h3&gt;&lt;font face=&quot;Tahoma&quot;&gt;&lt;span style=&quot;font-size: 18px&quot;&gt;陈建平&lt;/span&gt;&lt;/font&gt;&lt;/h3&gt;" style="fontColor=#0066CC;verticalAlign=top;verticalLabelPosition=bottom;labelPosition=center;align=center;html=1;outlineConnect=0;fillColor=#CCCCCC;strokeColor=#330000;gradientColor=none;gradientDirection=north;strokeWidth=2;shape=mxgraph.networks.user_male;" vertex="1" parent="1">
          <mxGeometry x="117" y="125" width="40" height="100" as="geometry" />
        </mxCell>
        <mxCell id="B92s6wXv13DbhFQuGGSY-16" value="&lt;font style=&quot;font-size: 14px&quot;&gt;1、负责潥水区的智慧城市的项目的运维&lt;br&gt;2、智慧城市的大数据由中国移动代理，建设在阿里云和华为云上。&lt;br&gt;3、认为潥水的智慧城市很先进，山东一半的地方都来参观学习，可以把潥水的经验分享到山东。&lt;br&gt;&lt;/font&gt;" style="text;html=1;strokeColor=none;fillColor=none;align=left;verticalAlign=middle;whiteSpace=wrap;rounded=0;" vertex="1" parent="1">
          <mxGeometry x="650" y="330" width="154" height="180" as="geometry" />
        </mxCell>
        <mxCell id="B92s6wXv13DbhFQuGGSY-17" value="&lt;font&gt;&lt;font style=&quot;font-size: 14px&quot;&gt;两种项目线索：&lt;br&gt;1、电力二次系统的项目，薛总的公司有电力项目的资质，可能有项目分包给我们做，有潜在的合作机会。&lt;br&gt;2、潥水区的智慧城市项目，政府项目运作时间长，近期都不会有机会，可以开始运作，如果我们有合适的产品或解决方案，可以通过他们推荐到潥水区政府。&lt;br&gt;&lt;br&gt;关于陈总和和薛总说到的社区治理的事是为了应付区领导的要求做的一些功能，这个事情已经搞了很久了，去年就开始在做，是没有终点的事。领导的要求会不断的在变化。这个事情暂时不需要我们的参与。陈忠明确表示，他们没有项目可以给我们做。&lt;br&gt;&lt;/font&gt;&lt;br&gt;&lt;/font&gt;" style="text;html=1;strokeColor=none;fillColor=none;align=left;verticalAlign=middle;whiteSpace=wrap;rounded=0;" vertex="1" parent="1">
          <mxGeometry x="86" y="537" width="710" height="206" as="geometry" />
        </mxCell>
      </root>
    </mxGraphModel>
  </diagram>
</mxfile>
